<svg width="24" height="24" viewBox="0 0 24 24" fill="none" xmlns="http://www.w3.org/2000/svg">
  <circle cx="12" cy="12" r="12" fill="white"/>
  <path d="M12 0 A12 12 0 0 1 12 24 A12 12 0 0 1 12 0 Z" fill="#006847"/>
  <path d="M12 0 A12 12 0 0 0 12 24 L12 0 Z" fill="white"/>
  <path d="M12 0 A12 12 0 0 0 0 12 A12 12 0 0 0 12 24 L12 0 Z" fill="#CE1126"/>
  <rect x="0" y="0" width="8" height="24" fill="#006847"/>
  <rect x="8" y="0" width="8" height="24" fill="white"/>
  <rect x="16" y="0" width="8" height="24" fill="#CE1126"/>
  <circle cx="12" cy="12" r="3" fill="#8B4513"/>
  <path d="M12 10 L13 11 L12 12 L11 11 Z" fill="#228B22"/>
</svg>