<svg width="177" height="158" viewBox="0 0 177 158" fill="none" xmlns="http://www.w3.org/2000/svg">
<g filter="url(#filter0_d_538_784)">
<rect x="64.5" y="34" width="48" height="48" rx="4" fill="white" shape-rendering="crispEdges"/>
<g clip-path="url(#clip0_538_784)">
<path d="M79.5 51.0907C79.5 50.4846 79.7027 49.9846 80.1081 49.5907C80.5135 49.1967 81.0405 48.9998 81.6892 48.9998C82.3263 48.9998 82.8417 49.1937 83.2355 49.5816C83.6409 49.9816 83.8436 50.5028 83.8436 51.1452C83.8436 51.727 83.6467 52.2119 83.2529 52.5998C82.8475 52.9998 82.3147 53.1998 81.6544 53.1998H81.6371C81 53.1998 80.4846 52.9998 80.0907 52.5998C79.6969 52.1998 79.5 51.6967 79.5 51.0907ZM79.7259 66.9997V54.8543H83.583V66.9997H79.7259ZM85.7201 66.9997H89.5772V60.2179C89.5772 59.7937 89.6236 59.4664 89.7162 59.2361C89.8784 58.824 90.1245 58.4755 90.4546 58.1907C90.7847 57.9058 91.1988 57.7634 91.6969 57.7634C92.9942 57.7634 93.6429 58.6785 93.6429 60.5088V66.9997H97.5V60.0361C97.5 58.2422 97.0946 56.8816 96.2838 55.9543C95.473 55.027 94.4016 54.5634 93.0695 54.5634C91.5753 54.5634 90.4112 55.2361 89.5772 56.5816V56.6179H89.5598L89.5772 56.5816V54.8543H85.7201C85.7432 55.2422 85.7548 56.4482 85.7548 58.4725C85.7548 60.4967 85.7432 63.3391 85.7201 66.9997Z" fill="#0E0E0E"/>
</g>
</g>
<defs>
<filter id="filter0_d_538_784" x="0.5" y="-18" width="176" height="176" filterUnits="userSpaceOnUse" color-interpolation-filters="sRGB">
<feFlood flood-opacity="0" result="BackgroundImageFix"/>
<feColorMatrix in="SourceAlpha" type="matrix" values="0 0 0 0 0 0 0 0 0 0 0 0 0 0 0 0 0 0 127 0" result="hardAlpha"/>
<feOffset dy="12"/>
<feGaussianBlur stdDeviation="32"/>
<feComposite in2="hardAlpha" operator="out"/>
<feColorMatrix type="matrix" values="0 0 0 0 0.108333 0 0 0 0 0.0993056 0 0 0 0 0.0993056 0 0 0 0.12 0"/>
<feBlend mode="normal" in2="BackgroundImageFix" result="effect1_dropShadow_538_784"/>
<feBlend mode="normal" in="SourceGraphic" in2="effect1_dropShadow_538_784" result="shape"/>
</filter>
<clipPath id="clip0_538_784">
<rect width="18" height="18" fill="white" transform="translate(79.5 49)"/>
</clipPath>
</defs>
</svg>
